<svg xmlns="http://www.w3.org/2000/svg" xmlns:xlink="http://www.w3.org/1999/xlink" width="512" zoomAndPan="magnify" viewBox="0 0 384 383.999986" height="512" preserveAspectRatio="xMidYMid meet" version="1.0"><defs><clipPath id="id1"><path d="M 0 54.070312 L 383.980469 54.070312 L 383.980469 330.070312 L 0 330.070312 Z M 0 54.070312 " clip-rule="nonzero"/></clipPath></defs><path fill="#f8b30d" d="M 175.53125 81.941406 L 359.96875 81.941406 C 360.742188 158.28125 361.460938 234.625 362.234375 310.964844 C 249.074219 309.089844 135.917969 307.210938 22.761719 305.335938 L 22.761719 81.941406 L 149.597656 81.941406 " fill-opacity="1" fill-rule="nonzero"/><g clip-path="url(#id1)"><path fill="#294595" d="M 155.722656 263.050781 C 145.683594 262.335938 135.644531 261.894531 125.546875 261.671875 C 120.855469 261.5625 116.167969 261.507812 111.476562 261.507812 C 107.171875 261.453125 102.097656 262.167969 97.851562 261.507812 C 97.1875 261.175781 96.472656 261.066406 95.808594 261.285156 C 95.695312 261.339844 95.585938 261.339844 95.476562 261.398438 C 93.933594 261.894531 92.441406 263.769531 93.160156 265.480469 C 94.703125 269.234375 97.792969 268.628906 101.4375 268.574219 C 107.449219 268.515625 113.519531 268.515625 119.53125 268.460938 C 131.613281 268.296875 143.695312 267.800781 155.78125 266.917969 C 158.207031 266.695312 158.207031 263.21875 155.722656 263.050781 Z M 150.867188 278.894531 C 131.394531 277.957031 112.027344 278.289062 92.496094 278.617188 C 88.027344 278.675781 87.972656 285.683594 92.496094 285.574219 C 112.027344 285.132812 131.394531 284.636719 150.867188 282.980469 C 153.460938 282.757812 153.519531 279.003906 150.867188 278.894531 Z M 296.355469 281.710938 C 287.804688 279.335938 278.648438 278.894531 269.820312 278.121094 C 260.441406 277.292969 251.0625 276.578125 241.683594 275.96875 C 237.160156 275.640625 237.214844 282.703125 241.683594 282.980469 C 251.0625 283.585938 260.441406 284.136719 269.820312 284.523438 C 278.59375 284.914062 287.585938 285.628906 296.355469 284.359375 C 297.792969 284.136719 297.570312 282.039062 296.355469 281.710938 Z M 375.03125 190.683594 C 374.480469 170.648438 373.433594 150.664062 372.164062 130.683594 C 362.785156 129.082031 353.679688 124.445312 345.734375 118.484375 C 345.019531 119.476562 344.355469 120.417969 343.917969 121.464844 C 342.316406 125.496094 343.585938 131.289062 340.882812 134.546875 C 338.507812 137.417969 333.710938 137.582031 330.125 139.128906 L 356.332031 201.117188 L 337.625 188.476562 L 327.417969 217.347656 L 322.5625 204.652344 C 313.683594 205.09375 304.855469 206.253906 295.972656 206.640625 C 293.710938 206.75 291.503906 206.859375 289.242188 206.914062 L 287.804688 210.722656 L 287.035156 207.023438 C 280.414062 207.246094 273.792969 207.464844 267.171875 207.632812 C 232.082031 208.460938 196.992188 208.847656 161.902344 209.234375 C 144.359375 209.453125 126.757812 209.617188 109.214844 209.839844 C 100.605469 209.949219 92 210.003906 83.394531 210.117188 C 75.007812 210.226562 65.902344 211.332031 57.628906 209.730469 C 54.152344 209.066406 54.261719 203.492188 57.628906 202.773438 C 67.117188 200.734375 77.875 201.890625 87.53125 201.78125 C 97.1875 201.671875 106.839844 201.5625 116.496094 201.503906 C 151.640625 201.117188 186.785156 200.675781 221.929688 200.402344 C 233.515625 200.34375 245.101562 200.289062 256.746094 200.34375 L 265.847656 178.929688 C 241.242188 181.964844 216.195312 182.679688 191.476562 183.566406 C 176.359375 184.117188 161.242188 184.558594 146.179688 184.886719 C 138.621094 185.054688 131.0625 185.222656 123.503906 185.332031 C 116.109375 185.441406 108.21875 186.324219 100.828125 185.332031 C 96.964844 184.835938 95.089844 178.488281 99.777344 177.769531 C 107.171875 176.609375 114.953125 177.160156 122.457031 177.050781 C 129.683594 176.941406 136.855469 176.773438 144.082031 176.609375 C 159.199219 176.277344 174.316406 175.835938 189.378906 175.394531 C 215.53125 174.566406 241.902344 172.855469 268.164062 173.351562 L 283.558594 137.085938 C 283.503906 137.03125 283.390625 136.921875 283.335938 136.863281 C 280.027344 134.105469 274.125 133.550781 271.859375 129.910156 C 269.597656 126.324219 271.640625 120.746094 270.59375 116.554688 C 269.542969 112.523438 265.074219 108.601562 265.40625 104.1875 C 265.738281 99.769531 270.648438 96.515625 272.246094 92.652344 C 273.847656 88.621094 272.578125 82.824219 275.28125 79.570312 C 278.039062 76.257812 283.941406 76.53125 287.585938 74.210938 C 291.171875 71.949219 293.542969 66.484375 297.734375 65.4375 C 301.765625 64.390625 306.453125 68.085938 310.8125 68.363281 C 311.417969 68.417969 312.027344 68.363281 312.632812 68.308594 C 312.191406 66.15625 311.859375 63.945312 311.859375 61.847656 C 303.035156 61.847656 294.148438 61.792969 285.324219 61.738281 C 239.253906 61.574219 193.183594 61.351562 147.0625 60.855469 C 121.242188 60.578125 95.363281 60.632812 69.601562 62.402344 C 69.214844 76.644531 60.9375 91.324219 52.167969 101.703125 C 41.574219 114.234375 27.394531 123.839844 12.222656 129.855469 C 12.054688 129.910156 11.890625 129.964844 11.78125 129.964844 C 11.0625 151.4375 10.179688 172.910156 9.738281 194.328125 C 9.296875 215.414062 9.019531 236.558594 8.855469 257.644531 C 21.492188 260.789062 33.351562 269.84375 41.90625 278.894531 C 51.617188 289.164062 61.160156 303.902344 62.8125 318.363281 C 71.421875 317.976562 79.972656 317.644531 88.582031 317.367188 C 137.628906 315.824219 186.675781 316.210938 235.667969 318.363281 C 259.667969 319.414062 283.613281 321.507812 307.667969 322.171875 C 309.542969 322.226562 311.417969 322.226562 313.296875 322.28125 C 315.003906 305.003906 323.226562 288.277344 334.207031 275.140625 C 344.246094 263.109375 359.695312 250.632812 375.859375 247.816406 C 375.640625 228.773438 375.585938 209.730469 375.03125 190.683594 Z M 375.417969 253.449219 C 369.515625 256.484375 363.554688 259.246094 358.039062 263.164062 C 351.253906 267.964844 345.128906 273.761719 339.832031 280.164062 C 329.625 292.585938 324.054688 306.828125 321.296875 322.335938 C 338.785156 322.226562 356.054688 321.011719 373.542969 319.082031 C 374.425781 297.21875 375.089844 275.363281 375.417969 253.449219 Z M 54.261719 318.804688 C 52.109375 312.675781 50.511719 306.605469 47.421875 300.808594 C 44.167969 294.683594 40.25 288.996094 35.667969 283.808594 C 31.035156 278.617188 25.792969 274.035156 20.054688 270.117188 C 16.359375 267.578125 12.445312 265.535156 8.46875 263.496094 C 8.414062 272.546875 8.359375 281.601562 8.359375 290.707031 C 8.359375 296.230469 8.359375 301.75 8.359375 307.269531 C 8.359375 312.015625 8.746094 316.871094 7.917969 321.621094 C 23.367188 320.460938 38.8125 319.578125 54.261719 318.804688 Z M 11.726562 121.410156 C 24.195312 115.28125 35.78125 107.882812 45.160156 97.398438 C 50.125 91.875 54.261719 85.640625 57.519531 78.960938 C 60.109375 73.714844 61.601562 68.308594 63.144531 62.785156 C 46.042969 64.167969 29.050781 66.320312 12.167969 69.6875 C 12.496094 86.964844 12.222656 104.1875 11.726562 121.410156 Z M 291.667969 200.566406 C 294.480469 200.621094 297.242188 200.675781 300.054688 200.734375 C 307.226562 200.953125 314.34375 201.671875 321.515625 202 L 306.34375 162.203125 Z M 283.003906 188.589844 L 259.78125 200.234375 C 264.632812 200.234375 269.433594 200.234375 274.289062 200.289062 C 278.039062 200.289062 281.792969 200.34375 285.542969 200.402344 Z M 381.710938 319.300781 C 381.433594 323.332031 376.578125 324.269531 374.480469 322.007812 C 350.648438 329.789062 324.109375 329.902344 299.390625 329.183594 C 250.5625 327.800781 201.902344 324.65625 153.023438 324.710938 C 103.644531 324.765625 54.261719 326.476562 4.996094 330.066406 C 1.410156 330.339844 0.25 326.589844 1.519531 324.046875 C 1.1875 323.664062 0.96875 323.21875 0.800781 322.726562 C -0.359375 317.699219 0.0820312 312.402344 0.0820312 307.269531 C 0.0820312 301.75 0.0820312 296.230469 0.140625 290.707031 C 0.195312 280 0.25 269.289062 0.359375 258.636719 C 0.582031 237.21875 0.910156 215.855469 1.410156 194.4375 C 2.402344 151.4375 2.511719 107.832031 7.476562 65.105469 C 7.699219 63.117188 9.847656 62.457031 11.117188 63.230469 C 29.105469 59.640625 47.3125 57.375 65.574219 56.050781 C 66.234375 55.558594 67.0625 55.558594 67.78125 55.886719 C 73.628906 55.5 79.53125 55.167969 85.4375 54.949219 C 131.171875 53.074219 177.183594 54.617188 222.925781 55.71875 C 269.820312 56.878906 316.769531 57.265625 363.667969 59.421875 C 364.992188 59.476562 364.992188 61.460938 363.667969 61.460938 C 347.722656 61.792969 331.777344 61.847656 315.832031 61.792969 C 316.828125 63.503906 317.710938 65.214844 318.539062 67.035156 C 320.46875 66.652344 322.34375 66.484375 324 67.148438 C 328.027344 68.75 329.625 74.488281 332.882812 77.195312 C 336.191406 79.953125 342.09375 80.507812 344.355469 84.148438 C 346.621094 87.738281 344.578125 93.3125 345.625 97.507812 C 346.675781 101.535156 351.144531 105.457031 350.8125 109.871094 C 350.757812 110.480469 350.648438 111.03125 350.425781 111.585938 C 352.136719 112.796875 353.847656 113.957031 355.667969 115.0625 C 360.796875 118.152344 366.09375 120.027344 371.613281 121.851562 C 370.125 102.089844 367.527344 82.164062 367.527344 62.34375 C 367.527344 59.859375 371.335938 59.308594 371.886719 61.738281 C 376.6875 82.546875 377.847656 104.628906 379.503906 125.824219 C 381.210938 147.023438 382.316406 168.273438 383.03125 189.527344 C 384.46875 232.75 384.46875 276.191406 381.710938 319.300781 Z M 145.1875 156.683594 C 177.738281 156.351562 211.007812 157.125 243.28125 153.039062 C 245.101562 152.820312 245.160156 150.386719 243.28125 150.167969 C 210.894531 146.746094 177.683594 148.238281 145.1875 148.570312 C 140 148.621094 140 156.738281 145.1875 156.683594 Z M 327.640625 226.511719 C 310.207031 224.246094 292.441406 224.355469 274.839844 224.191406 C 256.910156 223.96875 238.976562 223.96875 220.992188 223.96875 C 185.792969 223.96875 150.59375 224.136719 115.449219 224.355469 C 95.089844 224.523438 74.730469 224.6875 54.375 224.910156 C 49.078125 224.964844 49.019531 233.246094 54.375 233.1875 C 125.105469 232.417969 195.835938 232.527344 266.5625 232.140625 C 286.867188 232.03125 307.445312 232.582031 327.640625 230.152344 C 329.957031 229.824219 329.957031 226.785156 327.640625 226.511719 Z M 301.710938 264.433594 C 280.964844 262.71875 260.109375 262.558594 239.253906 261.730469 C 234.453125 261.5625 234.453125 269.015625 239.253906 269.179688 C 260.054688 269.898438 280.964844 270.339844 301.710938 268.1875 C 304.082031 267.964844 304.136719 264.652344 301.710938 264.433594 Z M 184.746094 117.214844 C 184.746094 108.4375 191.863281 101.371094 200.578125 101.371094 C 209.351562 101.371094 216.414062 108.492188 216.414062 117.214844 C 216.414062 125.9375 209.296875 133.058594 200.578125 133.058594 C 191.863281 133.058594 184.746094 125.9375 184.746094 117.214844 " fill-opacity="1" fill-rule="nonzero"/></g><path fill="#f8b30d" d="M 296.246094 107.554688 C 295.367188 109.597656 294.648438 111.640625 294.425781 113.847656 C 294.261719 115.558594 296.027344 117.046875 297.625 117.046875 C 299.226562 117.046875 300.992188 115.558594 300.828125 113.847656 C 300.660156 111.585938 299.941406 109.597656 299.003906 107.554688 C 298.5625 106.503906 296.6875 106.503906 296.246094 107.554688 Z M 316.332031 86.304688 C 310.976562 85.089844 306.289062 85.03125 301.765625 88.621094 C 298.398438 91.269531 293.929688 97.234375 295.527344 101.703125 C 296.136719 103.359375 298.125 104.078125 299.503906 102.753906 C 301.984375 100.324219 301.875 96.292969 304.027344 93.480469 C 306.894531 89.558594 311.527344 88.953125 316.054688 88.566406 C 317.210938 88.402344 317.652344 86.578125 316.332031 86.304688 Z M 307.390625 74.210938 C 308.496094 73.992188 308.882812 75.484375 307.832031 75.867188 C 300.550781 78.519531 291.832031 81.277344 287.144531 87.957031 C 282.953125 93.921875 283.390625 102.089844 284.164062 109.042969 C 284.882812 115.503906 286.8125 122.402344 291.777344 126.875 C 296.6875 131.234375 303.476562 132.5625 309.875 131.898438 C 316.550781 131.234375 323.941406 128.476562 328.355469 123.175781 C 332.882812 117.710938 334.148438 108.878906 334.09375 102.035156 C 334.039062 94.914062 331.722656 87.460938 326.09375 82.824219 C 319.972656 77.800781 311.640625 78.351562 304.191406 79.015625 C 300.550781 79.347656 300.496094 73.441406 304.191406 73.273438 C 312.414062 72.890625 321.128906 72.667969 328.191406 77.523438 C 333.929688 81.5 337.625 88.125 339.003906 94.914062 C 341.542969 107.664062 338.621094 124.226562 327.363281 131.953125 C 316.992188 139.074219 301.101562 140.894531 290.289062 133.609375 C 279.144531 126.101562 277.324219 111.363281 278.757812 99 C 280.523438 83.652344 293.378906 76.863281 307.390625 74.210938 " fill-opacity="1" fill-rule="nonzero"/></svg>